<svg width="219" height="322" viewBox="0 0 219 322" fill="none" xmlns="http://www.w3.org/2000/svg">
<path d="M185.88 97.0017C185.88 97.0017 190.451 63.473 198.069 72.6172C205.687 81.7614 198.069 95.4777 198.069 95.4777L191.975 103.098L185.88 98.5257V97.0017Z" fill="#DCAAB2"/>
<path d="M167.597 107.67C167.597 107.67 182.833 90.9056 185.88 93.9536C188.928 97.0017 198.069 98.5257 196.546 104.622C195.022 110.718 163.026 130.53 163.026 130.53L167.597 107.67Z" fill="#6C63FF"/>
<path opacity="0.1" d="M167.597 107.67C167.597 107.67 182.833 90.9056 185.88 93.9536C188.928 97.0017 198.069 98.5257 196.546 104.622C195.022 110.718 163.026 130.53 163.026 130.53L167.597 107.67Z" fill="black"/>
<path d="M80.7513 106.146V118.338C80.7513 118.338 79.2278 145.771 88.3694 144.247C97.511 142.723 92.9402 119.862 92.9402 119.862L91.4166 106.146L80.7513 106.146Z" fill="#DCAAB2"/>
<path d="M85.3222 194.54C85.3222 194.54 71.6096 215.876 67.0388 217.4C62.468 218.924 38.0902 232.64 35.043 246.356L13.7125 273.789L24.3777 287.505C24.3777 287.505 73.1333 235.688 86.8458 231.116C100.558 226.544 114.271 203.684 114.271 203.684L85.3222 194.54Z" fill="#DCAAB2"/>
<path d="M193.498 159.487C193.498 159.487 222.447 164.059 217.876 182.347C213.305 200.636 169.121 238.736 169.121 238.736L167.597 247.88L150.837 250.929L143.219 243.308L144.743 238.736C144.743 238.736 163.026 221.972 164.55 215.876C166.074 209.78 182.833 185.395 190.451 183.871L179.786 177.775L193.498 159.487Z" fill="#DCAAB2"/>
<path d="M18.2833 273.789C18.2833 273.789 24.3778 264.645 15.2361 266.169C6.09445 267.693 1.90735e-06 269.217 1.90735e-06 275.313C1.90735e-06 281.409 7.61805 324.082 16.7597 321.034C25.9014 317.986 18.2833 304.27 18.2833 304.27C18.2833 304.27 22.8541 292.077 25.9014 290.553C28.9486 289.029 28.9486 281.409 25.9014 281.409C22.8541 281.409 16.7597 276.837 18.2833 273.789Z" fill="#6C63FF"/>
<path d="M147.79 240.26C147.79 240.26 147.79 232.64 141.696 240.26C135.601 247.88 132.554 253.977 138.649 258.549C144.743 263.121 166.073 273.789 166.073 273.789C166.073 273.789 188.928 278.361 185.88 267.693C185.88 267.693 170.644 260.073 170.644 253.977C170.644 247.881 170.644 237.212 166.073 240.26C161.503 243.308 147.79 244.832 147.79 240.26Z" fill="#6C63FF"/>
<path d="M118.842 125.958C118.842 125.958 97.511 129.006 99.0347 159.487C99.0347 159.487 71.6097 186.919 79.2277 196.064C86.8458 205.208 103.605 221.972 109.7 217.4C115.794 212.828 134.078 177.775 134.078 177.775C134.078 177.775 176.739 193.015 184.357 185.395C191.975 177.775 199.593 159.487 199.593 159.487L161.503 139.674L118.842 125.958Z" fill="#6C63FF"/>
<path d="M178.262 39.0886C168.165 39.0886 159.979 30.9006 159.979 20.8003C159.979 10.6999 168.165 2.5119 178.262 2.5119C188.36 2.5119 196.546 10.6999 196.546 20.8003C196.546 30.9006 188.36 39.0886 178.262 39.0886Z" fill="#DCAAB2"/>
<path d="M164.55 22.3243C164.55 22.3243 153.885 39.0886 150.837 40.6126C147.79 42.1367 172.168 57.3769 172.168 57.3769C172.168 57.3769 172.168 37.5646 179.786 32.9925L164.55 22.3243Z" fill="#DCAAB2"/>
<path d="M163.026 39.0886C163.026 39.0886 138.649 31.4685 134.078 43.6607C129.507 55.8529 118.842 78.7133 120.365 93.9536C121.889 109.194 124.936 106.146 120.365 110.718C115.794 115.29 112.747 112.242 114.271 118.338C115.794 124.434 117.318 124.434 115.794 127.482C114.271 130.53 134.078 141.199 150.837 142.723L167.597 144.247C167.597 144.247 167.597 116.814 170.644 110.718C173.691 104.622 179.786 92.4296 179.786 87.8575V75.7602C179.786 67.7083 177.685 59.7958 173.692 52.8049C173.692 52.8049 164.55 39.0886 163.026 39.0886Z" fill="#6C63FF"/>
<path d="M144.743 45.1847C144.743 45.1847 88.3693 49.7568 82.2749 64.9971C76.1804 80.2374 73.1332 110.718 79.2277 110.718C85.3221 110.718 92.9402 113.766 94.4638 110.718C95.9874 107.67 102.082 77.1893 103.605 77.1893C105.129 77.1893 150.837 72.6172 150.837 72.6172C150.837 72.6172 170.644 48.2328 144.743 45.1847Z" fill="#6C63FF"/>
<path d="M178.997 16.2663C178.997 16.2663 183.849 7.83235 189.914 15.158C195.978 22.4837 205.844 9.02148 204.33 6.14893C202.815 3.27638 197.467 6.27809 188.301 3.28089C179.135 0.283694 161.478 -5.82219 158.521 14.0954C155.564 34.013 162.607 31.925 162.607 31.925C162.607 31.925 165.835 14.2758 168.752 19.3454L171.67 24.415L174.201 25.0381L178.997 16.2663Z" fill="black"/>
</svg>
