<svg xmlns="http://www.w3.org/2000/svg" width="286" height="337" fill="none" viewBox="0 0 286 337"><path fill="url(#paint0_linear)" d="M272.464 310.015C266.777 309.203 256.263 300.265 256.263 300.265C255.501 299.126 254.459 298.201 253.237 297.579C252.015 296.958 250.654 296.66 249.284 296.715L238.844 282.033C234.796 275.078 229.995 268.591 224.528 262.688C223.634 261.696 222.71 260.735 221.757 259.803C218.941 257.004 215.915 254.423 212.706 252.085C210.594 250.51 208.601 248.783 206.742 246.917C205.024 245.206 203.396 243.405 201.867 241.522L194.604 231.35L194.116 230.659C194.302 229.666 194.351 228.652 194.262 227.645C194.262 227.409 194.214 227.174 194.181 226.938L164.2 191.692L155.263 173.46C155.157 173.549 154.8 173.85 154.239 174.272L154.077 173.809V173.598V172.062C154.031 159.442 157.163 147.014 163.185 135.923C165.207 132.2 166.265 128.029 166.264 123.792C166.264 123.451 166.264 123.11 166.264 122.769L166.109 122.598C165.825 122.281 165.175 121.55 164.338 120.469C164.444 120.258 164.558 120.039 164.663 119.836C168.384 112.994 173.56 111.824 173.56 111.824C190.98 109.387 203.541 97.6465 203.541 97.6465C216.541 90.3341 214.103 83.8342 214.103 83.8342L202.355 55.4783L195.042 40.4878L193.019 33.5979C192.356 29.0151 191.421 24.476 190.216 20.0049C188.486 13.4075 179.865 11.5306 175.705 16.9337C175.607 17.0637 175.502 17.2018 175.404 17.3481C173.563 20.0098 172.78 23.2629 173.21 26.471C173.64 29.6792 175.251 32.6116 177.728 34.6948C181.791 38.156 185.325 41.7065 185.325 41.7065C192.637 43.7296 197.512 81.4048 197.512 81.4048L192.637 84.6548C188.899 84.8487 185.241 85.8152 181.895 87.4932C178.548 89.1713 175.586 91.5246 173.194 94.4047H157.903C157.903 94.3397 157.944 94.2747 157.968 94.2015L155.433 93.6328L148.121 92.0078L145.415 91.3984L145.375 91.5691L144.611 91.3984V91.5041C143.584 89.8769 142.661 88.1862 141.849 86.4422C142.067 86.4752 142.289 86.4752 142.507 86.4422C142.564 86.3204 142.612 86.1985 142.653 86.0766H142.913C144.042 83.6392 143.067 80.5923 144.156 78.1061C144.744 77.0572 145.395 76.0452 146.106 75.0755C147.731 72.2724 147.536 68.7625 147.057 65.545C146.537 62.0838 145.74 58.5495 143.75 55.6651C141.759 52.7808 138.322 50.6683 134.812 51.1233C132.05 51.4889 129.629 53.382 126.85 53.5608C124.884 53.6745 122.999 52.9027 121.163 52.3014C119.152 51.6538 117.088 51.1834 114.996 50.8958C113.606 50.7008 111.973 50.6764 111.039 51.7083L110.958 51.8139C110.84 51.9038 110.731 52.0044 110.633 52.1145C110.266 52.5726 109.99 53.0966 109.82 53.6583L108.025 58.6063C107.932 58.7744 107.884 58.963 107.884 59.1548C107.884 59.3465 107.932 59.5352 108.025 59.7032C108.187 59.9063 108.471 59.9632 108.691 60.1013C110.113 61.0194 108.203 63.2863 109.381 64.3994C110.088 65.0656 111.6 65.1388 113.094 65.1306C111.734 67.274 110.911 69.7135 110.694 72.2427C110.477 74.7718 110.873 77.316 111.848 79.6597C112.823 82.0035 114.348 84.0777 116.295 85.7067C118.242 87.3357 120.552 88.4715 123.031 89.0179C123.031 89.286 123.031 89.5541 123.031 89.8303C123.07 91.973 122.901 94.1144 122.528 96.2246L121.341 96.3303C119.367 96.4359 115.378 96.5903 111.892 96.4278C110.725 96.3815 109.561 96.2702 108.406 96.0946C108.406 96.0946 108.268 97.5734 108 99.8402L107.188 100.068C99.6105 102.245 93.0303 106.998 88.5817 113.506L70.3494 124.069C70.3494 124.069 62.2245 122.046 38.7516 142.301L21.7381 151.238C21.7381 151.238 -4.25348 158.892 0.605213 166.578C5.46391 174.264 29.7736 157.267 29.7736 157.267L39.5235 152.815L69.0982 139.815C69.0982 139.815 78.8481 133.315 86.1117 130.877C93.3754 128.44 100.696 121.127 100.696 121.127L102.524 121.03L103.337 120.981C103.215 121.2 103.082 121.411 102.938 121.615C102.865 121.729 102.784 121.834 102.703 121.932V187.15L102.573 188.962H102.63L100.68 215.49C100.68 215.49 101.086 227.677 99.4609 234.527C97.8359 241.376 100.68 269.366 100.68 269.366C100.68 269.366 101.744 269.366 103.475 269.244L103.426 270.057L102.711 281.521C102.711 281.521 101.346 285.941 109.211 288.241C111.012 288.762 112.726 289.548 114.297 290.572L123.364 296.512L132.684 302.199L134.569 306.156L134.658 306.351L132.676 305.14C132.676 305.14 131.051 309.203 136.324 314.46C138.298 316.226 139.839 318.424 140.825 320.884C141.811 323.343 142.217 325.996 142.011 328.638C142.011 328.638 142.824 338.387 147.698 335.95C147.698 335.95 155.393 334.325 155.011 320.959C155.011 320.959 151.94 309.828 155.515 305.124C155.612 304.994 155.715 304.869 155.823 304.75C159.886 300.298 154.605 293.375 154.605 293.375C154.605 293.375 145.22 289.589 144.692 295.878L144.302 295.707C142.612 294.895 139.582 292.92 136.372 288.11C136.372 288.11 131.107 274.745 123.007 273.526L124.364 265.832L124.518 264.946C127.305 263.63 129.564 261.932 130.701 259.746L130.75 259.649V259.608V259.551V259.495V259.438L130.791 259.356V259.291L130.831 259.202L130.88 259.105V259.023L130.937 258.91L131.091 258.828L131.148 258.706L131.197 258.601L131.262 258.463L131.319 258.349L131.384 258.211L131.457 258.065L131.514 257.951L131.595 257.78L131.652 257.666L132.001 256.911L132.05 256.813L132.147 256.602L132.221 256.448L132.326 256.212L132.391 256.074L132.513 255.798L132.562 255.684L132.692 255.4L132.757 255.261L132.887 254.969L132.944 254.839L133.082 254.53L133.139 254.408L133.285 254.083L133.334 253.962L133.48 253.62L133.529 253.507L133.691 253.141V253.076C136.283 247.047 139.541 238.378 139.379 233.243C139.4 232.834 139.4 232.425 139.379 232.016H139.281V231.935C139.281 231.764 139.216 231.602 139.167 231.447L161.04 236.322L174.039 250.5H174.096H174.145H174.202H174.267H174.332L174.413 250.46H174.486L174.592 250.411L174.673 250.37L174.787 250.313L174.884 250.265L175.023 250.192L175.112 250.143L175.266 250.062L175.364 250.005L175.526 249.923L175.64 249.858L175.819 249.761L175.933 249.704L176.119 249.598L176.249 249.525L176.453 249.412L176.591 249.078L176.818 248.948L176.94 248.883L177.176 248.753L177.314 248.672L177.557 248.534L177.687 248.453L177.947 248.298L178.086 248.217L178.354 248.055L178.484 247.973L178.768 247.803H178.817L179.272 248.331L184.959 254.928C190.647 257.366 203.598 269.513 203.598 269.513C205.093 273.096 211.422 278.214 214.656 280.668C215.58 281.352 216.562 281.955 217.589 282.472C219.36 283.39 221.854 285.576 224.138 287.786C227.117 290.73 230.313 293.446 233.701 295.91C236.833 298.299 239.619 301.11 241.98 304.263L242.256 304.62C240.322 311.12 251.388 317.726 251.388 317.726C255.451 316.913 267.996 328.288 267.996 328.288C267.996 328.288 279.744 337.607 284.603 327.476C289.462 317.344 272.464 310.015 272.464 310.015ZM250.998 299.16L249.374 296.861C249.815 297.069 250.194 297.388 250.475 297.787C250.756 298.186 250.928 298.651 250.974 299.136L250.998 299.16Z"/><path fill="#DB8B8B" d="M149.966 100.271C149.966 100.271 108.975 124.15 117.734 110.614C121.522 104.912 123.504 98.202 123.421 91.3576C123.42 89.123 123.119 86.8987 122.528 84.7439L139.639 76.7815C139.342 79.1253 139.553 81.5054 140.256 83.7608C142.653 92.2269 149.966 100.271 149.966 100.271Z"/><path fill="#000" d="M140.232 83.7691C138.608 86.6701 136.096 88.9736 133.066 90.341C130.036 91.7085 126.647 92.0677 123.397 91.3659C123.395 89.1314 123.095 86.9071 122.503 84.7523L139.614 76.7899C139.318 79.1337 139.528 81.5138 140.232 83.7691Z" opacity=".1"/><path fill="#DB8B8B" d="M126.688 90.919C135.258 90.919 142.206 83.9711 142.206 75.4005C142.206 66.8298 135.258 59.8819 126.688 59.8819C118.117 59.8819 111.169 66.8298 111.169 75.4005C111.169 83.9711 118.117 90.919 126.688 90.919Z"/><path fill="#000" d="M116.767 67.1455C118.267 67.4526 119.591 68.3255 120.464 69.5829C121.488 71.2079 121.463 73.4342 122.901 74.7016C123.986 75.5037 125.343 75.848 126.679 75.6604C128 75.4683 129.338 75.422 130.669 75.5223C132.822 75.8716 134.585 77.4641 135.779 79.2841C136.865 81.1714 137.831 83.1252 138.672 85.134C139.015 85.9308 139.506 86.6558 140.118 87.2709C140.427 87.5758 140.804 87.8039 141.217 87.9365C141.631 88.0692 142.07 88.1028 142.499 88.0346C143.612 85.5971 142.653 82.6397 143.717 80.2103C144.293 79.1813 144.93 78.1882 145.627 77.2366C147.252 74.4823 147.032 71.0373 146.553 67.8767C146.041 64.4724 145.261 61.0031 143.303 58.1756C141.345 55.3481 137.973 53.3006 134.561 53.715C131.847 54.0725 129.466 55.9331 126.736 56.0956C124.811 56.2094 122.95 55.4537 121.114 54.8606C119.14 54.2245 117.115 53.7624 115.061 53.4794C113.696 53.2925 112.095 53.26 111.177 54.2919C110.812 54.7391 110.536 55.2521 110.365 55.8031L108.601 60.678C108.51 60.8436 108.463 61.0294 108.463 61.2184C108.463 61.4073 108.51 61.5931 108.601 61.7587C108.764 61.9537 109.04 62.0105 109.251 62.1568C110.649 63.0587 108.772 65.2849 109.926 66.3817C111.08 67.4786 115.15 66.7636 116.767 67.1455Z" opacity=".1"/><path fill="#472727" d="M117.165 66.7474C118.665 67.0545 119.989 67.9274 120.862 69.1848C121.886 70.8098 121.861 73.036 123.3 74.3035C124.385 75.1056 125.741 75.4499 127.078 75.2623C128.398 75.0702 129.736 75.0239 131.067 75.1241C133.22 75.4735 134.983 77.066 136.178 78.886C137.264 80.7733 138.23 82.7271 139.07 84.7359C139.414 85.5327 139.904 86.2576 140.516 86.8727C140.825 87.1777 141.202 87.4057 141.616 87.5384C142.029 87.6711 142.468 87.7047 142.897 87.6365C144.01 85.199 143.051 82.2416 144.116 79.8122C144.691 78.7832 145.329 77.7901 146.025 76.8385C147.65 74.0842 147.431 70.6392 146.951 67.4786C146.439 64.0743 145.659 60.6049 143.701 57.7775C141.743 54.95 138.371 52.9025 134.959 53.3169C132.245 53.6744 129.865 55.535 127.135 55.6975C125.209 55.8112 123.348 55.0556 121.512 54.4625C119.539 53.8264 117.513 53.3643 115.459 53.0813C114.094 52.8944 112.493 52.8619 111.575 53.8938C111.21 54.341 110.935 54.854 110.763 55.405L109 60.2799C108.909 60.4455 108.861 60.6313 108.861 60.8203C108.861 61.0092 108.909 61.195 109 61.3605C109.162 61.5555 109.439 61.6124 109.65 61.7587C111.047 62.6605 109.17 64.8868 110.324 65.9836C111.478 67.0805 115.548 66.3655 117.165 66.7474Z"/><path fill="#DB8B8B" d="M202.493 99.0764C202.493 99.0764 190.159 110.614 173.048 113.002C173.048 113.002 167.962 114.156 164.306 120.875C162.974 123.401 162.029 126.113 161.503 128.919L143.14 97.8089L142.003 95.8833H172.642C174.994 93.0595 177.906 90.7534 181.193 89.1103C184.481 87.4673 188.073 86.5228 191.744 86.3365L196.521 83.1515C196.521 83.1515 191.744 46.1426 184.586 44.152C184.586 44.152 181.092 40.6583 177.119 37.2621C174.68 35.2146 173.093 32.3298 172.671 29.1733C172.249 26.0169 173.021 22.8165 174.836 20.1998C174.933 20.0617 175.031 19.9235 175.136 19.7935C179.199 14.488 187.689 16.3323 189.396 22.816C190.58 27.2202 191.5 31.6915 192.15 36.2058L194.14 42.9739L201.307 57.6962L212.844 85.5484C212.844 85.5484 215.225 91.9183 202.493 99.0764Z"/><path fill="#DB8B8B" d="M110.966 100.669L108.577 121.794L103.206 122.094L101.411 122.192C101.411 122.192 94.2447 129.358 87.0867 131.738C79.9286 134.119 70.3737 140.497 70.3737 140.497L41.3272 153.204L31.7804 157.584C31.7804 157.584 7.90133 174.329 3.12388 166.732C-1.65356 159.136 23.8424 151.579 23.8424 151.579L40.5553 142.821C63.6382 122.923 71.5925 124.946 71.5925 124.946L89.4672 114.603C93.8357 108.209 100.298 103.54 107.74 101.4C108.796 101.078 109.874 100.833 110.966 100.669Z"/><path fill="#000" d="M164.306 120.875C162.974 123.401 162.029 126.113 161.503 128.919L143.14 97.8088C143.578 97.2019 143.961 96.5575 144.286 95.8832C144.756 94.93 145.126 93.9307 145.391 92.9014L148.048 93.5026L155.238 95.1276L157.733 95.6882C157.733 95.7532 157.684 95.8182 157.668 95.8832C154.32 105.714 160.633 116.009 164.306 120.875Z" opacity=".1"/><path fill="#000" d="M110.966 100.669L108.577 121.794L103.207 122.094C105.49 118.032 107.041 107.274 107.748 101.433C108.801 101.099 109.876 100.844 110.966 100.669Z" opacity=".1"/><path fill="#6C63FF" d="M162.86 136.28C156.89 147.279 153.814 159.614 153.922 172.127V173.687V173.891C153.922 173.891 158.301 185.826 153.922 185.826C149.543 185.826 149.941 191.798 144.375 192.992C138.81 194.187 119.302 202.539 113.338 198.964C107.375 195.389 103.393 187.825 103.393 187.825V122.956C103.475 122.858 103.556 122.752 103.629 122.639C107.066 117.764 108.967 97.4515 108.967 97.4515C110.103 97.6262 111.248 97.7374 112.396 97.7846C115.816 97.9471 119.708 97.7846 121.674 97.6871L122.893 97.614C126.33 100.303 131.018 100.693 133.342 100.693C134.157 100.696 134.972 100.756 135.779 100.872C142.499 101.815 144.546 92.8853 144.546 92.8853L147.203 93.4865L154.393 95.1115L156.888 95.6722C152.411 108.355 164.2 121.916 165.687 123.557L165.841 123.727C165.968 128.101 164.939 132.431 162.86 136.28Z"/><path fill="#fff" d="M112.404 97.817C112.404 103.09 111.145 120.567 103.41 123.094V122.955C103.491 122.858 103.572 122.752 103.645 122.639C107.082 117.764 108.983 97.4514 108.983 97.4514C110.116 97.6366 111.258 97.7587 112.404 97.817Z" opacity=".3"/><path fill="#fff" d="M165.728 123.581C151.168 122.834 152.89 103.789 154.434 95.1439L156.928 95.7045C152.452 108.379 164.233 121.94 165.728 123.581Z" opacity=".3"/><g opacity=".1"><path fill="#000" d="M165.882 124.15C165.878 124.109 165.861 124.07 165.833 124.039C165.805 124.009 165.768 123.988 165.728 123.979C162.478 123.167 166.085 124.345 162.478 123.167C162.34 123.118 162.673 122.574 162.673 122.574C162.783 126.943 161.74 131.264 159.65 135.102C153.681 146.1 150.605 158.436 150.713 170.949V172.509V172.704C150.713 172.704 155.092 184.64 150.713 184.64C146.334 184.64 146.732 190.612 141.166 191.806C136.064 192.903 119.286 199.996 111.917 198.428C112.372 198.761 112.835 199.078 113.314 199.362C119.286 202.945 138.786 194.585 144.351 193.39C149.917 192.196 149.527 186.224 153.898 186.224C158.269 186.224 153.898 174.289 153.898 174.289V174.086V172.526C153.79 160.012 156.865 147.677 162.835 136.678C164.934 132.842 165.984 128.521 165.882 124.15Z" opacity=".1"/><path fill="#000" d="M123.86 98.459C123.673 98.329 123.478 98.1909 123.3 98.0527H122.877C123.202 98.2152 123.535 98.3371 123.86 98.459Z" opacity=".1"/></g><path fill="#DB8B8B" d="M249.447 297.649L244.678 308.39C243.316 306.151 241.824 303.994 240.209 301.931C237.892 298.836 235.158 296.077 232.084 293.733C228.757 291.313 225.618 288.646 222.692 285.754C220.449 283.585 217.995 281.432 216.257 280.53C215.246 280.023 214.282 279.43 213.372 278.759C210.204 276.321 203.98 271.324 202.509 267.806C202.509 267.806 189.778 255.871 184.204 253.482L178.646 246.982L172.26 239.531L188.575 223.217L193.377 229.936L200.519 239.93C203.749 243.944 207.445 247.56 211.528 250.703C215.596 253.654 219.352 257.01 222.74 260.721C228.082 266.53 232.768 272.908 236.715 279.742L246.977 294.163L247.05 294.277L248.675 296.544L249.447 297.649Z"/><path fill="#DB8B8B" d="M148.373 298.844L142.003 313.964L136.836 308.39L134.707 303.922L132.854 300.03L123.698 294.456L114.76 288.622C113.217 287.617 111.533 286.844 109.763 286.331C102.037 284.072 103.369 279.734 103.369 279.734L104.076 268.473L104.563 260.632L125.688 258.243L124.632 264.215L123.299 271.771C131.262 272.966 136.429 286.096 136.429 286.096C139.574 290.816 142.556 292.774 144.221 293.554C144.655 293.773 145.113 293.94 145.586 294.05L148.373 298.844Z"/><path fill="#000" d="M247.05 294.285L246.863 294.18H246.977L247.05 294.285Z" opacity=".1"/><path fill="#000" d="M249.447 297.649L244.677 308.39C243.316 306.151 241.824 303.994 240.209 301.931C240.94 302.63 245.027 306.351 246.335 302.955C246.836 301.57 247.414 300.213 248.065 298.892C248.469 298.188 248.674 297.388 248.659 296.577L249.447 297.649Z" opacity=".1"/><path fill="#000" d="M249.057 296.942L247.432 294.675L247.359 294.561L237.097 280.14C233.141 273.311 228.447 266.938 223.098 261.136C219.71 257.425 215.953 254.068 211.885 251.118C207.802 247.975 204.107 244.358 200.876 240.344L193.759 230.391L188.957 223.672L188.258 224.37L192.556 230.391L199.698 240.385C202.933 244.388 206.631 247.993 210.715 251.126C214.783 254.076 218.54 257.433 221.928 261.144C227.268 266.945 231.954 273.315 235.903 280.14L246.181 294.578L246.254 294.691L247.879 296.958L248.691 298.063L244.417 307.683C244.864 308.39 245.116 308.804 245.116 308.804L249.894 298.063L249.057 296.942Z" opacity=".1"/><path fill="#000" d="M148.373 298.843L142.003 313.964L136.835 308.39L134.707 303.921L140.817 307.984C146.821 304.23 144.505 294.635 144.229 293.562C144.663 293.781 145.121 293.947 145.594 294.058L148.373 298.843Z" opacity=".1"/><path fill="#6C63FF" d="M144.595 293.871C144.595 293.871 147.577 304.433 141.215 308.398L132.854 302.825C132.854 302.825 131.229 306.806 136.437 311.981C138.375 313.718 139.886 315.878 140.852 318.293C141.819 320.708 142.216 323.314 142.011 325.907C142.011 325.907 142.824 335.454 147.585 333.074C147.585 333.074 155.149 331.449 154.751 318.351C154.751 318.351 151.737 307.423 155.247 302.8C155.344 302.676 155.444 302.554 155.547 302.435C159.528 298.055 154.353 291.295 154.353 291.295C154.353 291.295 144.993 287.509 144.595 293.871Z"/><path fill="#000" d="M153.947 185.834C149.567 185.834 149.966 191.806 144.4 193C138.834 194.195 119.327 202.547 113.363 198.972C107.399 195.397 103.418 187.833 103.418 187.833V187.02C113.363 192.196 125.705 187.02 125.705 187.02C134.496 188.71 149.616 177.181 153.955 173.679V173.882C153.955 173.882 158.318 185.834 153.947 185.834Z" opacity=".1"/><path fill="#000" d="M104.596 260.64L125.721 258.251L124.664 264.223C118.124 267.262 108.707 268.196 104.141 268.481L104.596 260.64Z" opacity=".1"/><path fill="#000" d="M193.361 229.952C192.361 237.265 184.188 243.545 178.63 247.014L172.244 239.564L188.559 223.249L193.361 229.952Z" opacity=".1"/><path fill="#6C63FF" d="M125.688 187.817C125.688 187.817 113.355 192.992 103.402 187.817L101.411 214.881C101.411 214.881 101.809 226.816 100.217 233.568C98.6243 240.32 101.411 267.79 101.411 267.79C101.411 267.79 126.086 267.392 130.856 258.243C130.856 258.243 141.199 237.549 139.216 230.391L160.707 235.168L173.447 249.078C173.447 249.078 195.335 238.735 193.344 225.995L163.892 191.392L155.141 173.517C155.141 173.517 136.039 189.807 125.688 187.817Z"/><path fill="#000" d="M173.446 249.078L160.715 235.152L139.216 230.391C139.265 230.57 139.305 230.757 139.346 230.952C139.412 231.333 139.45 231.719 139.46 232.105C139.793 240.385 130.864 258.251 130.864 258.251C126.086 267.408 101.419 267.798 101.419 267.798C101.419 267.798 98.5916 240.352 100.217 233.584C101.842 226.816 101.411 214.897 101.411 214.897L103.328 188.84L103.401 187.841C106.18 189.24 109.23 190.016 112.339 190.116C116.742 190.243 121.13 189.529 125.266 188.012L125.688 187.841C125.921 187.884 126.159 187.919 126.403 187.947C134.95 188.889 148.657 178.7 153.427 174.906C154.507 174.045 155.133 173.517 155.133 173.517L163.891 191.392L193.336 226.012C193.399 226.41 193.437 226.811 193.45 227.214C193.962 239.402 173.446 249.078 173.446 249.078Z" opacity=".1"/><path fill="#fff" d="M147.244 93.5108C138.379 109.525 125.306 100.661 121.683 97.7195L122.901 97.6464C126.338 100.336 131.026 100.726 133.35 100.726C134.166 100.729 134.98 100.788 135.788 100.904C142.507 101.847 144.554 92.9177 144.554 92.9177L147.244 93.5108Z" opacity=".3"/><path fill="#6C63FF" d="M247.277 294.578C248.64 294.501 250 294.782 251.221 295.392C252.442 296.001 253.483 296.92 254.24 298.055C254.24 298.055 264.575 306.765 270.141 307.578C270.141 307.578 286.854 314.744 282.076 324.689C277.299 334.634 265.761 325.501 265.761 325.501C265.761 325.501 253.428 314.362 249.447 315.158C249.447 315.158 238.502 308.593 240.509 302.223C240.509 302.223 245.303 307.098 246.749 303.353C247.247 301.968 247.822 300.611 248.472 299.29C249.243 297.763 249.642 295.772 247.277 294.578Z"/><path fill="#000" d="M123.072 187.914C118.912 189.125 110.544 190.742 103.41 187.029L103.28 188.808C111.933 191.952 121.504 188.523 123.072 187.914Z" opacity=".1"/><path fill="#000" d="M132.115 186.517C130.043 187.188 127.844 187.374 125.688 187.061C125.688 187.061 124.811 187.427 123.348 187.873C125.891 188.304 128.946 187.678 132.115 186.517Z" opacity=".1"/><path fill="#000" d="M193.458 227.222C193.076 239.028 173.446 248.306 173.446 248.306L173.17 248.006C178.606 245.024 192.564 236.306 190.956 226.02L161.503 191.391L153.427 174.874C154.507 174.012 155.133 173.484 155.133 173.484L163.891 191.359L193.336 225.979C193.404 226.39 193.445 226.806 193.458 227.222Z" opacity=".1"/><path fill="#000" d="M136.836 230.391C138.826 237.557 128.475 258.243 128.475 258.243C127.061 260.949 123.917 262.891 120.18 264.28C124.924 262.866 129.158 260.713 130.864 257.447C130.864 257.447 140.045 239.085 139.444 230.968L136.836 230.391Z" opacity=".1"/><path fill="#fff" d="M130.067 127.132C124.461 127.132 119.919 133.632 119.919 141.659C119.919 149.686 124.461 156.186 130.067 156.186C135.673 156.186 140.215 149.686 140.215 141.659C140.215 133.632 135.673 127.132 130.067 127.132ZM130.067 150.215C126.769 150.215 124.087 146.388 124.087 141.659C124.087 136.93 126.76 133.104 130.067 133.104C133.374 133.104 136.047 136.93 136.047 141.659C136.047 146.388 133.366 150.215 130.067 150.215Z" opacity=".3"/><path fill="#F88787" d="M196.578 24.6117C196.578 25.0829 196.578 25.5488 196.578 26.0092C196.578 26.2611 196.578 26.5129 196.521 26.7567C196.18 30.9303 194.782 34.9484 192.459 38.4321C192.304 38.6678 192.142 38.8953 191.979 39.1228C189.764 42.2297 186.839 44.7632 183.447 46.5126C180.056 48.262 176.296 49.177 172.48 49.1814C171.935 49.1814 171.391 49.1814 170.855 49.1245C170.318 49.0676 169.855 49.0433 169.36 48.9783C165.915 48.5112 162.613 47.3044 159.679 45.4405C156.745 43.5766 154.249 41.0998 152.362 38.1803C152.232 37.9934 152.11 37.7903 151.997 37.6034V37.5628C149.614 33.6637 148.357 29.1812 148.365 24.6117C148.363 23.3937 148.45 22.1772 148.625 20.9717L148.755 20.1592C149.414 16.4419 150.921 12.9263 153.158 9.88553C155.396 6.84476 158.304 4.36055 161.657 2.62571L162.535 2.19509C165.387 0.879031 168.47 0.139101 171.609 0.017798C174.747 -0.103505 177.879 0.396186 180.824 1.48821C181.591 1.77331 182.342 2.09877 183.074 2.4632C188.472 5.15146 192.687 9.73711 194.912 15.3412C194.994 15.5281 195.059 15.7068 195.124 15.8937C196.125 18.6896 196.617 21.6422 196.578 24.6117Z"/><path fill="#fff" d="M195.026 15.8937C193.481 16.3521 191.877 16.5847 190.265 16.5843H189.989H189.355C188.965 16.5843 188.583 16.5355 188.217 16.4868C185.057 16.1089 182.03 14.9959 179.378 13.2368C172.284 6.00567 165.338 3.53569 161.584 2.67445L162.461 2.24384C166.15 3.1782 172.138 5.49378 178.37 11.3437C179.977 12.8638 181.872 14.0463 183.944 14.8212C185.368 15.3475 186.848 15.7048 188.356 15.8855C188.681 15.8855 188.997 15.9505 189.314 15.9749H189.956C191.603 16.0199 193.247 15.8117 194.831 15.3574C194.888 15.5605 194.961 15.7393 195.026 15.8937Z" opacity=".5"/><path fill="#fff" d="M196.537 26.0091C196.537 26.2609 196.537 26.5128 196.48 26.7565C194.402 25.4275 192.181 24.3373 189.859 23.5066L189.249 23.2872C183.712 21.4269 177.992 20.1631 172.187 19.5173C158.537 17.7785 151.728 19.4035 148.487 20.9472L148.617 20.1348C152.127 18.591 159.041 17.1854 172.268 18.8673C178.07 19.5151 183.788 20.7649 189.33 22.5966L189.94 22.816C192.248 23.6379 194.46 24.7085 196.537 26.0091Z" opacity=".5"/><path fill="#fff" d="M189.94 22.8729C189.94 23.0922 189.891 23.3116 189.867 23.5391C189.726 24.6495 189.525 25.8114 189.265 27.0247C189.065 27.9401 188.843 28.8203 188.599 29.6653C188.534 29.8847 188.469 30.104 188.404 30.3153C185.317 40.2033 179.036 45.2164 174.072 47.7188C173.018 48.2548 171.933 48.7269 170.822 49.1326L169.327 48.9863C170.886 48.5011 172.403 47.8868 173.861 47.1501C178.736 44.7126 184.902 39.7321 187.909 29.9416C187.974 29.7466 188.03 29.5434 188.087 29.3403C188.315 28.5549 188.521 27.7424 188.705 26.9028C188.97 25.6841 189.173 24.4924 189.314 23.3279C189.314 23.1085 189.363 22.881 189.387 22.6616C189.595 20.6465 189.595 18.6155 189.387 16.6004C189.387 16.3892 189.347 16.178 189.314 15.9748C188.819 11.5983 186.921 7.49955 183.903 4.29122C182.917 3.25876 181.828 2.33034 180.653 1.52063C181.42 1.80574 182.171 2.1312 182.904 2.49563C183.38 2.91271 183.852 3.3677 184.317 3.86061C187.423 7.20079 189.364 11.4563 189.85 15.9911C189.85 16.1942 189.899 16.4055 189.924 16.6086C190.146 18.6905 190.152 20.7899 189.94 22.8729Z" opacity=".5"/><path fill="#fff" d="M192.394 38.4402C192.239 38.6759 192.077 38.9034 191.914 39.1309C191.232 36.1733 190.138 33.3262 188.664 30.6728C188.587 30.5409 188.491 30.4205 188.38 30.3153C188.218 30.1673 188.034 30.044 187.836 29.9497C184.708 28.3979 175.364 30.9978 168.417 34.7515C163.071 37.644 156.075 38.1559 152.249 38.1884L151.883 37.6115V37.5709C155.539 37.5709 162.722 37.1321 168.133 34.2072C174.633 30.7135 184.301 27.7073 188.022 29.3322C188.22 29.4184 188.408 29.5246 188.583 29.6491C188.838 29.8313 189.054 30.0635 189.217 30.3316C190.624 32.8846 191.692 35.6105 192.394 38.4402Z" opacity=".5"/><defs><linearGradient id="paint0_linear" x1="195646" x2="195646" y1="218181" y2="90179.1" gradientUnits="userSpaceOnUse"><stop stop-color="gray" stop-opacity=".25"/><stop offset=".54" stop-color="gray" stop-opacity=".12"/><stop offset="1" stop-color="gray" stop-opacity=".1"/></linearGradient></defs></svg>