<svg xmlns="http://www.w3.org/2000/svg" width="182" height="321" fill="none" viewBox="0 0 182 321"><path fill="#FBBEBE" d="M148.983 96.6094C153.375 96.6094 156.936 93.0485 156.936 88.6559C156.936 84.2633 153.375 80.7024 148.983 80.7024C144.59 80.7024 141.029 84.2633 141.029 88.6559C141.029 93.0485 144.59 96.6094 148.983 96.6094Z"/><path fill="#2F2E41" d="M46.6223 312.89C49.6918 312.89 52.18 310.401 52.18 307.332C52.18 304.263 49.6918 301.774 46.6223 301.774C43.5529 301.774 41.0647 304.263 41.0647 307.332C41.0647 310.401 43.5529 312.89 46.6223 312.89Z"/><path fill="#000" d="M46.6223 312.89C49.6918 312.89 52.18 310.401 52.18 307.332C52.18 304.263 49.6918 301.774 46.6223 301.774C43.5529 301.774 41.0647 304.263 41.0647 307.332C41.0647 310.401 43.5529 312.89 46.6223 312.89Z" opacity=".1"/><path fill="#2F2E41" d="M5.55763 266.884C8.62704 266.884 11.1153 264.396 11.1153 261.327C11.1153 258.257 8.62704 255.769 5.55763 255.769C2.48823 255.769 0 258.257 0 261.327C0 264.396 2.48823 266.884 5.55763 266.884Z"/><path fill="#000" d="M5.55763 266.884C8.62704 266.884 11.1153 264.396 11.1153 261.327C11.1153 258.257 8.62704 255.769 5.55763 255.769C2.48823 255.769 0 258.257 0 261.327C0 264.396 2.48823 266.884 5.55763 266.884Z" opacity=".1"/><path fill="#2F2E41" d="M2.16122 249.285C2.16122 249.285 7.10136 248.05 12.659 258.548L58.3552 311.037C58.3552 311.037 63.6746 315.048 69.3514 312.734C69.3514 312.734 70.088 315.36 61.4428 314.742C52.7976 314.125 35.5071 293.129 35.5071 293.129C35.5071 293.129 1.5437 254.843 2.16122 249.285Z"/><path fill="#2F2E41" d="M8.954 275.221C12.0234 275.221 14.5117 272.733 14.5117 269.663C14.5117 266.594 12.0234 264.106 8.954 264.106C5.88459 264.106 3.39634 266.594 3.39634 269.663C3.39634 272.733 5.88459 275.221 8.954 275.221Z"/><path fill="#2F2E41" d="M50.3276 320.3C53.397 320.3 55.8853 317.812 55.8853 314.742C55.8853 311.673 53.397 309.185 50.3276 309.185C47.2582 309.185 44.77 311.673 44.77 314.742C44.77 317.812 47.2582 320.3 50.3276 320.3Z"/><path fill="#FBBEBE" d="M106.152 169.817C106.152 169.817 145.056 220.453 148.143 223.541C148.143 223.541 140.733 246.389 142.586 253.799C144.438 261.21 138.88 279.117 138.88 279.117L145.673 287.763H151.231C151.231 287.763 155.445 262.972 160.493 250.712C173.461 219.218 167.286 215.513 160.493 202.545C153.701 189.578 137.028 164.259 135.793 164.259C134.558 164.259 106.152 169.817 106.152 169.817Z"/><path fill="#FDA57D" d="M121.59 61.7516C135.573 61.7516 146.908 50.4163 146.908 36.4334C146.908 22.4506 135.573 11.1152 121.59 11.1152C107.607 11.1152 96.2719 22.4506 96.2719 36.4334C96.2719 50.4163 107.607 61.7516 121.59 61.7516Z"/><path fill="#FBBEBE" d="M115.724 50.9451C115.724 50.9451 126.839 71.9407 107.696 69.4706L108.931 96.0238C108.931 96.0238 121.899 103.434 122.516 103.434C123.134 103.434 142.277 97.2589 142.277 97.2589L146.599 92.3187L147.217 69.4706C147.217 69.4706 132.397 68.2356 131.779 51.5626C131.162 34.8897 115.724 50.9451 115.724 50.9451Z"/><path fill="#000" d="M115.724 50.9451C115.724 50.9451 126.839 71.9407 107.696 69.4706L108.931 96.0238C108.931 96.0238 121.899 103.434 122.516 103.434C123.134 103.434 142.277 97.2589 142.277 97.2589L146.599 92.3187L147.217 69.4706C147.217 69.4706 132.397 68.2356 131.779 51.5626C131.162 34.8897 115.724 50.9451 115.724 50.9451Z" opacity=".1"/><path fill="#FBBEBE" d="M100.286 118.872L90.4056 125.665L103.991 149.13L119.429 147.895L134.249 141.103C134.249 141.103 134.249 130.605 137.954 124.43C141.659 118.254 100.286 118.872 100.286 118.872Z"/><path fill="#FBBEBE" d="M137.337 42.9174C137.338 46.4581 136.168 49.8998 134.009 52.7065C131.851 55.5132 128.825 57.5275 125.403 58.4357C121.98 59.3439 118.354 59.0951 115.088 57.7281C111.822 56.361 109.099 53.9524 107.344 50.8772C105.95 48.4563 105.22 45.7108 105.226 42.9174V42.9112C105.227 38.653 106.919 34.5696 109.931 31.5592C112.942 28.5488 117.026 26.8581 121.285 26.8589C125.543 26.8597 129.626 28.552 132.637 31.5636C135.647 34.5752 137.338 38.6592 137.337 42.9174Z"/><path fill="#FBBEBE" d="M107.769 69.1338C107.769 69.1338 99.0507 65.148 92.2581 65.7655C85.4654 66.3831 72.4975 68.2356 68.7924 65.7655C65.0873 63.2955 45.9443 67.6181 45.9443 67.6181C45.9443 67.6181 45.3268 73.7933 61.9998 78.1159C78.6727 82.4385 91.023 83.056 94.1106 87.9961C97.1982 92.9363 101.521 99.1115 101.521 99.1115L110.166 81.2034L107.769 69.1338Z"/><path fill="#000" d="M107.344 50.8771C105.95 48.4563 105.22 45.7107 105.226 42.9173V42.9111C108.956 42.6889 113.211 43.0223 116.959 44.7699C123.356 47.7586 113.84 49.8582 107.344 50.8771Z" opacity=".2"/><path fill="#FBBEBE" d="M57.0595 71.3231C57.0595 71.3231 68.1748 67.618 71.2624 63.2954C74.35 58.9728 102.138 49.7101 102.138 49.7101C102.138 49.7101 126.221 47.24 116.959 42.9174C107.696 38.5948 95.3456 42.9174 95.3456 42.9174C95.3456 42.9174 49.6493 58.3553 47.7968 61.4429C46.6812 63.3177 46.0449 65.4387 45.9442 67.618L50.2668 69.4706L57.0595 71.3231Z"/><path fill="#FBBEBE" d="M74.35 147.895C74.35 147.895 61.9997 166.421 73.115 211.499C73.115 211.499 73.115 234.347 71.2624 242.375C69.4099 250.403 71.2624 292.394 71.2624 292.394L77.4376 298.569L82.9953 294.864C82.9953 294.864 78.9814 279.117 85.7741 263.062C92.5668 247.007 87.6266 226.011 87.6266 226.011C87.6266 226.011 100.286 183.094 97.1981 168.891C94.1105 154.688 74.35 147.895 74.35 147.895Z"/><path fill="#6C63FF" d="M76.2028 291.776C76.2028 291.776 70.6451 283.131 69.4101 285.601C68.1751 288.071 66.3225 295.482 58.2948 298.569C50.2671 301.657 44.7095 301.657 52.7372 307.832C60.7648 314.007 62.6174 314.007 66.3225 312.155C70.0276 310.302 76.2028 309.067 78.0553 309.684C79.9079 310.302 87.318 307.832 86.7005 304.127C86.083 300.422 82.9954 296.717 82.9954 296.717C82.9954 296.717 81.7604 289.924 80.5254 291.776C79.2903 293.629 76.2028 291.776 76.2028 291.776Z"/><path fill="#6C63FF" d="M149.07 283.131C149.07 283.131 139.948 274.352 140.495 272.566C141.042 270.781 129.927 270.781 131.779 277.574C133.632 284.366 138.572 292.394 138.572 292.394C137.954 300.422 137.954 307.214 144.747 309.684C151.54 312.155 159.567 310.302 157.097 302.892C154.627 295.482 152.613 284.125 152.613 284.125L149.07 283.131Z"/><path fill="#6C63FF" d="M93.1844 122.886C93.1844 122.886 71.2626 135.545 70.0276 152.835C70.0276 152.835 76.2027 170.126 98.4333 173.213C98.4333 173.213 103.769 170.743 106.35 173.213C108.931 175.683 131.162 173.213 137.954 167.038C137.954 167.038 133.941 140.794 135.176 135.236C135.176 135.236 115.106 152.218 105.844 138.015C96.5808 123.812 93.1844 122.886 93.1844 122.886Z"/><path fill="#FBBEBE" d="M145.982 71.3231C145.982 71.3231 157.715 65.148 163.89 78.7333C170.065 92.3187 182.416 113.314 181.798 120.724C181.181 128.135 143.512 149.13 143.512 149.13C143.512 149.13 127.457 165.803 126.222 159.01C124.986 152.218 137.954 142.955 137.954 142.955C137.954 142.955 166.36 126.282 166.36 120.107C166.36 113.932 152.157 89.2311 149.07 89.2311C145.982 89.2311 145.982 71.3231 145.982 71.3231Z"/><path fill="#6C63FF" d="M108.931 68.2354L103.991 67.6179C103.991 67.6179 110.174 87.9425 98.7461 95.0707C98.7461 95.0707 105.226 114.549 95.9631 120.107C86.7003 125.664 133.014 137.397 137.337 132.457C141.659 127.517 155.519 96.1484 154.455 95.1598C153.392 94.1711 145.982 88.6135 147.834 81.8208C148.93 77.9211 149.559 73.9048 149.706 69.8566L143.921 68.4105L139.807 89.231C139.807 89.231 121.281 96.6412 113.254 85.5259L108.931 68.2354Z"/><path fill="#FDA57D" d="M127.613 23.4657H111.862C109.391 23.4657 107.387 25.4692 107.387 27.9406V32.5761C107.387 35.0476 109.391 37.0511 111.862 37.0511H127.613C130.085 37.0511 132.088 35.0476 132.088 32.5761V27.9406C132.088 25.4692 130.085 23.4657 127.613 23.4657Z"/><path fill="#FDA57D" d="M123.443 22.2306C129.581 22.2306 134.558 17.2541 134.558 11.1153C134.558 4.9765 129.581 0 123.443 0C117.304 0 112.327 4.9765 112.327 11.1153C112.327 17.2541 117.304 22.2306 123.443 22.2306Z"/></svg>