<svg width="149" height="297" viewBox="0 0 149 297" fill="none" xmlns="http://www.w3.org/2000/svg">
<path d="M1.1108 264.993L1.10633 265.776L0 265.77C0.347829 265.48 0.719393 265.22 1.1108 264.993Z" fill="#CCCCCC"/>
<path d="M5.98982 263.946L5.97933 265.803L3.5421 265.789L3.55107 264.066C4.08223 263.958 4.62291 263.904 5.16493 263.904C5.44043 263.904 5.71578 263.918 5.98982 263.946Z" fill="#CCCCCC"/>
<path d="M10.3957 265.825L8.41661 265.815L8.4226 264.589C9.13657 264.903 9.80119 265.32 10.3957 265.825Z" fill="#CCCCCC"/>
<path d="M86.145 167.052L95.8867 204.936C95.8867 204.936 96.2475 231.636 98.4123 242.099C100.577 252.562 107.793 277.819 107.793 277.819L116.453 279.262L114.648 243.903C114.648 243.903 114.648 222.616 112.844 217.925C111.04 213.235 107.432 165.248 107.432 165.248L86.145 167.052Z" fill="#A0616A"/>
<path opacity="0.1" d="M86.145 167.052L95.8867 204.936C95.8867 204.936 96.2475 231.636 98.4123 242.099C100.577 252.562 107.793 277.819 107.793 277.819L116.453 279.262L114.648 243.903C114.648 243.903 114.648 222.616 112.844 217.925C111.04 213.235 107.432 165.248 107.432 165.248L86.145 167.052Z" fill="black"/>
<path d="M113.153 8.26367H113.153C101.127 8.26367 91.3773 19.0835 91.3773 32.4304V49.3878H96.5926L99.612 43.105L98.8571 49.3878H132.379L135.124 43.6761L134.438 49.3878H138.212V36.0732C138.212 20.7144 126.993 8.26367 113.153 8.26367Z" fill="#2F2E41"/>
<path d="M76.9446 161.099C76.9446 161.099 72.6149 179.5 78.3878 181.304C84.1606 183.108 82.7174 161.099 82.7174 161.099H76.9446Z" fill="#A0616A"/>
<path d="M84.1606 67.6506L81.2741 70.898L81.9957 133.317L75.5014 162.903L89.9333 164.346L97.1493 104.813L94.9847 74.5058L84.1606 67.6506Z" fill="#6C63FF"/>
<path opacity="0.1" d="M84.1606 67.6506L81.2741 70.898L81.9957 133.317L75.5014 162.903L89.9333 164.346L97.1493 104.813L94.9847 74.5058L84.1606 67.6506Z" fill="black"/>
<path d="M111.227 47.0185C119.788 47.0185 126.729 40.0778 126.729 31.5161C126.729 22.9543 119.788 16.0137 111.227 16.0137C102.665 16.0137 95.7242 22.9543 95.7242 31.5161C95.7242 40.0778 102.665 47.0185 111.227 47.0185Z" fill="#A0616A"/>
<path d="M102.339 40.8175C102.339 40.8175 106.886 64.3812 104.819 66.8616C102.752 69.342 126.729 62.3142 126.729 62.3142C126.729 62.3142 118.874 46.1917 123.008 37.0969L102.339 40.8175Z" fill="#A0616A"/>
<path d="M141.528 144.141C141.528 144.141 145.858 162.542 140.085 164.346C134.312 166.15 135.755 144.141 135.755 144.141H141.528Z" fill="#A0616A"/>
<path d="M108.154 162.722C108.154 162.722 102.02 199.524 102.381 204.936C102.742 210.348 102.381 211.07 102.381 211.07C102.381 211.07 96.2475 226.945 94.4435 235.965C92.6395 244.986 88.6706 256.531 88.6706 256.531C88.6706 256.531 83.9802 266.995 87.949 266.995C91.9179 266.995 97.3299 265.551 97.3299 265.551C97.3157 261.384 98.7148 257.335 101.299 254.065C105.628 248.594 118.617 222.977 118.617 219.729C118.617 216.482 120.782 207.101 120.782 207.101L129.081 167.052L108.154 162.722Z" fill="#A0616A"/>
<path d="M82.8978 138.188C82.8978 138.188 76.7641 169.217 82.1762 169.938C87.5882 170.66 95.1651 165.248 104.907 171.382C114.648 177.515 130.885 176.072 130.885 176.072C130.885 176.072 142.07 147.569 131.967 140.713C121.865 133.858 82.8978 138.188 82.8978 138.188Z" fill="#6C63FF"/>
<path d="M89.753 262.665C91.3409 261.974 93.0862 261.724 94.8042 261.943C96.4482 262.187 98.1236 261.8 99.4946 260.861C99.4946 260.861 96.6082 271.324 96.969 275.293C97.3298 279.262 95.8866 296.22 88.3098 294.416C80.7329 292.611 78.5681 287.199 81.4545 277.819C84.3409 268.438 83.6193 257.614 83.6193 257.614C83.6193 257.614 88.885 252.175 89.8602 252.91C90.8354 253.645 89.753 262.665 89.753 262.665Z" fill="#6C63FF"/>
<path d="M113.927 276.014C113.927 276.014 110.319 268.077 105.989 275.293C101.659 282.509 101.298 284.313 101.298 284.313C101.298 284.313 89.0311 295.498 97.6904 296.58C106.35 297.663 113.205 296.219 113.205 294.415C113.205 292.611 117.535 292.972 117.895 291.529C118.256 290.086 117.174 276.736 117.174 276.736L113.927 276.014Z" fill="#6C63FF"/>
<path d="M122.045 52.8577C122.045 52.8577 106.891 55.7441 105.087 55.3833C104.681 55.3115 104.27 55.2679 103.857 55.2529C100.329 55.0925 96.8304 55.9601 93.786 57.7504C88.7617 60.669 81.274 65.8631 81.274 70.8978C81.274 78.4747 91.0156 91.4636 91.0156 91.4636C91.0156 91.4636 81.9956 122.493 82.7172 125.379C83.4388 128.266 77.3051 138.007 81.274 141.254C85.2428 144.502 123.127 141.254 129.982 144.502C136.838 147.749 133.59 101.205 133.59 101.205C133.59 101.205 151.991 58.9913 142.611 55.0225C139.575 53.7382 136.955 52.7562 134.8 52.0153C132.724 51.3009 130.527 51.0075 128.337 51.1521C126.147 51.2967 124.008 51.8766 122.045 52.8577Z" fill="#6C63FF"/>
<path d="M136.116 55.3833L144.395 56.7514C144.395 56.7514 148.023 60.4345 148.023 62.2386C148.023 64.0426 147.301 141.976 146.219 144.502C145.136 147.027 133.23 145.945 133.23 145.945L135.394 101.566L136.116 55.3833Z" fill="#6C63FF"/>
<path d="M119.344 14.921C117.157 12.1057 113.933 10.3225 110.333 10.3225H109.905C101.662 10.3225 94.9798 17.7815 94.9798 26.9828V26.9828H97.7419L98.1879 23.5875L98.8419 26.9828H115.223L116.596 24.1103L116.253 26.9828H119.475C120.979 34.4512 118.819 41.9196 112.993 49.388H118.483L121.228 43.6431L120.542 49.388H131.007L133.065 36.1746C133.065 26.2791 127.316 17.8878 119.344 14.921Z" fill="#2F2E41"/>
<path d="M122.353 16.3124C126.858 16.3124 130.509 12.6607 130.509 8.15618C130.509 3.65165 126.858 0 122.353 0C117.848 0 114.197 3.65165 114.197 8.15618C114.197 12.6607 117.848 16.3124 122.353 16.3124Z" fill="#2F2E41"/>
<path d="M79.6554 177.335L78.815 177.003L49.3841 251.472C47.9875 248.523 43.0228 240.989 28.5807 240.461C27.8618 240.438 27.1626 240.697 26.6306 241.18C26.0986 241.664 25.7756 242.336 25.7298 243.054L25.4793 246.812C25.3416 248.856 25.9955 250.874 27.3054 252.449C28.6154 254.024 30.481 255.034 32.5157 255.271C38.4242 255.954 46.2191 256.077 49.7231 252.771L49.826 252.812L79.6554 177.335Z" fill="#2F2E41"/>
</svg>
