<svg xmlns="http://www.w3.org/2000/svg" width="25" height="25" fill="none" viewBox="0 0 25 25"><path fill="#000" d="M8.83137 13.7925C8.83137 13.4793 8.57735 13.2256 8.26392 13.2256H6.28375C5.97068 13.2256 5.71661 13.4793 5.71661 13.7925V15.7724C5.71661 16.086 5.97068 16.3398 6.28375 16.3398H8.26392C8.57735 16.3398 8.83137 16.086 8.83137 15.7724V13.7925Z"/><path fill="#000" d="M13.7801 13.7925C13.7801 13.4793 13.526 13.2256 13.2132 13.2256H11.2328C10.9197 13.2256 10.6656 13.4793 10.6656 13.7925V15.7724C10.6656 16.086 10.9197 16.3398 11.2328 16.3398H13.2132C13.526 16.3398 13.7801 16.086 13.7801 15.7724V13.7925Z"/><path fill="#000" d="M18.7291 13.7925C18.7291 13.4793 18.4751 13.2256 18.162 13.2256H16.1818C15.8684 13.2256 15.6144 13.4793 15.6144 13.7925V15.7724C15.6144 16.086 15.8684 16.3398 16.1818 16.3398H18.162C18.4751 16.3398 18.7291 16.086 18.7291 15.7724V13.7925Z"/><path fill="#000" d="M8.83137 18.7416C8.83137 18.4279 8.57735 18.1744 8.26392 18.1744H6.28375C5.97068 18.1744 5.71661 18.4279 5.71661 18.7416V20.7212C5.71661 21.0346 5.97068 21.2883 6.28375 21.2883H8.26392C8.57735 21.2883 8.83137 21.0345 8.83137 20.7212V18.7416Z"/><path fill="#000" d="M13.7801 18.7416C13.7801 18.4279 13.526 18.1744 13.2132 18.1744H11.2328C10.9197 18.1744 10.6656 18.4279 10.6656 18.7416V20.7212C10.6656 21.0346 10.9197 21.2883 11.2328 21.2883H13.2132C13.526 21.2883 13.7801 21.0345 13.7801 20.7212V18.7416Z"/><path fill="#000" d="M18.7291 18.7416C18.7291 18.4279 18.4751 18.1744 18.1623 18.1744H16.1818C15.8684 18.1744 15.6144 18.4279 15.6144 18.7416V20.7212C15.6144 21.0346 15.8684 21.2883 16.1818 21.2883H18.1623C18.4751 21.2883 18.7291 21.0345 18.7291 20.7212V18.7416Z"/><path fill="#000" d="M22.2699 2.78368V5.80785C22.2699 7.17474 21.161 8.27624 19.7943 8.27624H18.2326C16.8659 8.27624 15.7423 7.17474 15.7423 5.80785V2.77283H8.70349V5.80785C8.70349 7.17474 7.57997 8.27624 6.21338 8.27624H4.65142C3.28479 8.27624 2.17596 7.17474 2.17596 5.80785V2.78368C0.981508 2.81969 0 3.80806 0 5.0229V22.7459C0 23.9836 1.00317 25.0001 2.24085 25.0001H22.2049C23.4408 25.0001 24.4458 23.9815 24.4458 22.7459V5.0229C24.4458 3.80806 23.4643 2.81969 22.2699 2.78368ZM21.5445 21.6423C21.5445 22.1771 21.1108 22.6111 20.5758 22.6111H3.82734C3.29226 22.6111 2.85859 22.1771 2.85859 21.6423V12.4877C2.85859 11.9526 3.29221 11.5187 3.82734 11.5187H20.5757C21.1108 11.5187 21.5445 11.9526 21.5445 12.4877L21.5445 21.6423Z"/><path fill="#000" d="M4.64595 6.65495H6.19066C6.65952 6.65495 7.03968 6.27535 7.03968 5.80649V0.848762C7.03968 0.379851 6.65952 0 6.19066 0H4.64595C4.17704 0 3.79694 0.379851 3.79694 0.848762V5.80649C3.79694 6.27535 4.17704 6.65495 4.64595 6.65495Z"/><path fill="#000" d="M18.2128 6.65495H19.7575C20.2261 6.65495 20.6062 6.27535 20.6062 5.80649V0.848762C20.6063 0.379851 20.2261 0 19.7575 0H18.2128C17.744 0 17.3638 0.379851 17.3638 0.848762V5.80649C17.3638 6.27535 17.744 6.65495 18.2128 6.65495Z"/></svg>