<svg width="91" height="91" viewBox="0 0 91 91" fill="none" xmlns="http://www.w3.org/2000/svg">
<g filter="url(#filter0_d)">
<path d="M45.4999 36.4922L63.0311 18.9609L68.039 23.9689L50.5078 41.5001L68.039 59.0313L63.0311 64.0393L45.4999 46.508L27.9686 64.0393L22.9607 59.0313L40.4919 41.5001L22.9607 23.9689L27.9686 18.9609L45.4999 36.4922Z" fill="url(#paint0_linear)"/>
<path d="M45.5001 82.7858C22.698 82.7858 4.21436 64.3022 4.21436 41.5001C4.21436 18.698 22.698 0.214355 45.5001 0.214355C68.3022 0.214355 86.7858 18.698 86.7858 41.5001C86.7858 64.3022 68.3022 82.7858 45.5001 82.7858ZM45.5001 74.5286C54.2598 74.5286 62.6607 71.0489 68.8548 64.8548C75.0489 58.6607 78.5286 50.2598 78.5286 41.5001C78.5286 32.7403 75.0489 24.3394 68.8548 18.1453C62.6607 11.9513 54.2598 8.4715 45.5001 8.4715C36.7403 8.4715 28.3394 11.9513 22.1453 18.1453C15.9513 24.3394 12.4715 32.7403 12.4715 41.5001C12.4715 50.2598 15.9513 58.6607 22.1453 64.8548C28.3394 71.0489 36.7403 74.5286 45.5001 74.5286Z" fill="url(#paint1_linear)"/>
</g>
<defs>
<filter id="filter0_d" x="0.214355" y="0.214355" width="90.5714" height="90.5714" filterUnits="userSpaceOnUse" color-interpolation-filters="sRGB">
<feFlood flood-opacity="0" result="BackgroundImageFix"/>
<feColorMatrix in="SourceAlpha" type="matrix" values="0 0 0 0 0 0 0 0 0 0 0 0 0 0 0 0 0 0 127 0"/>
<feOffset dy="4"/>
<feGaussianBlur stdDeviation="2"/>
<feColorMatrix type="matrix" values="0 0 0 0 0 0 0 0 0 0 0 0 0 0 0 0 0 0 0.25 0"/>
<feBlend mode="normal" in2="BackgroundImageFix" result="effect1_dropShadow"/>
<feBlend mode="normal" in="SourceGraphic" in2="effect1_dropShadow" result="shape"/>
</filter>
<linearGradient id="paint0_linear" x1="68.039" y1="41.8006" x2="22.9607" y2="41.8006" gradientUnits="userSpaceOnUse">
<stop stop-color="#824487"/>
<stop offset="1" stop-color="#544D85"/>
</linearGradient>
<linearGradient id="paint1_linear" x1="121.197" y1="251.641" x2="-92.1165" y2="251.641" gradientUnits="userSpaceOnUse">
<stop stop-color="#824487"/>
<stop offset="1" stop-color="#544D85"/>
</linearGradient>
</defs>
</svg>
