<svg width="92" height="91" viewBox="0 0 92 91" fill="none" xmlns="http://www.w3.org/2000/svg">
<g filter="url(#filter0_d)">
<path d="M66.866 23.805C62.3126 18.4619 54.9664 18.2449 50.2005 23.2607L46.148 27.5224L42.0924 23.2643C37.3113 18.2414 29.9803 18.4619 25.4148 23.8121C20.8917 29.1125 20.6641 37.5967 24.832 43.203L46.1419 68.2144L67.4519 43.2065C71.6228 37.5967 71.3951 29.1232 66.866 23.805Z" fill="url(#paint0_linear)"/>
<path d="M46.1429 82.7858C23.3408 82.7858 4.85718 64.3022 4.85718 41.5001C4.85718 18.698 23.3408 0.214355 46.1429 0.214355C68.945 0.214355 87.4286 18.698 87.4286 41.5001C87.4286 64.3022 68.945 82.7858 46.1429 82.7858ZM46.1429 74.5286C54.9026 74.5286 63.3036 71.0489 69.4976 64.8548C75.6917 58.6607 79.1715 50.2598 79.1715 41.5001C79.1715 32.7403 75.6917 24.3394 69.4976 18.1453C63.3036 11.9513 54.9026 8.4715 46.1429 8.4715C37.3832 8.4715 28.9822 11.9513 22.7882 18.1453C16.5941 24.3394 13.1143 32.7403 13.1143 41.5001C13.1143 50.2598 16.5941 58.6607 22.7882 64.8548C28.9822 71.0489 37.3832 74.5286 46.1429 74.5286Z" fill="url(#paint1_linear)"/>
</g>
<defs>
<filter id="filter0_d" x="0.857178" y="0.214355" width="90.5714" height="90.5714" filterUnits="userSpaceOnUse" color-interpolation-filters="sRGB">
<feFlood flood-opacity="0" result="BackgroundImageFix"/>
<feColorMatrix in="SourceAlpha" type="matrix" values="0 0 0 0 0 0 0 0 0 0 0 0 0 0 0 0 0 0 127 0"/>
<feOffset dy="4"/>
<feGaussianBlur stdDeviation="2"/>
<feColorMatrix type="matrix" values="0 0 0 0 0 0 0 0 0 0 0 0 0 0 0 0 0 0 0.25 0"/>
<feBlend mode="normal" in2="BackgroundImageFix" result="effect1_dropShadow"/>
<feBlend mode="normal" in="SourceGraphic" in2="effect1_dropShadow" result="shape"/>
</filter>
<linearGradient id="paint0_linear" x1="79.4378" y1="50.9098" x2="18.7244" y2="50.9098" gradientUnits="userSpaceOnUse">
<stop stop-color="#824487"/>
<stop offset="1" stop-color="#544D85"/>
</linearGradient>
<linearGradient id="paint1_linear" x1="121.84" y1="251.641" x2="-91.4736" y2="251.641" gradientUnits="userSpaceOnUse">
<stop stop-color="#824487"/>
<stop offset="1" stop-color="#544D85"/>
</linearGradient>
</defs>
</svg>
