<svg xmlns="http://www.w3.org/2000/svg" width="25" height="18" fill="none" viewBox="0 0 25 18"><path fill="#000" d="M16.5719 8.72188L25 14.05V3.16876L16.5719 8.72188Z"/><path fill="#000" d="M0 3.16876V14.05L8.42812 8.72188L0 3.16876Z"/><path fill="#000" d="M23.4375 0H1.5625C0.782812 0 0.164062 0.58125 0.046875 1.32969L12.5 9.53437L24.9531 1.32969C24.8359 0.58125 24.2172 0 23.4375 0Z"/><path fill="#000" d="M15.1406 9.66562L12.9297 11.1219C12.7984 11.2078 12.65 11.25 12.5 11.25C12.35 11.25 12.2015 11.2078 12.0703 11.1219L9.85936 9.66406L0.0499878 15.8687C0.1703 16.6109 0.785925 17.1875 1.56249 17.1875H23.4375C24.214 17.1875 24.8297 16.6109 24.95 15.8687L15.1406 9.66562Z"/></svg>