<svg xmlns="http://www.w3.org/2000/svg" width="41" height="43" fill="none" viewBox="0 0 41 43"><path fill="#fff" d="M18.5417 15.6667H22.4584V20H18.5417V15.6667Z"/><path fill="#fff" d="M26.3751 15.6667H30.2917V20H26.3751V15.6667Z"/><path fill="#fff" d="M10.7084 15.6667H14.6251V20H10.7084V15.6667Z"/><path fill="#fff" d="M24.4166 0.5H16.5833C12.4282 0.5 8.44331 2.32619 5.50525 5.57682C2.56717 8.82745 0.916584 13.2362 0.916584 17.8333C0.916584 22.4304 2.56717 26.8392 5.50525 30.0899C8.44331 33.3405 12.4282 35.1667 16.5833 35.1667V42.75C26.3749 38.4167 40.0833 31.9167 40.0833 17.8333C40.0833 13.2362 38.4327 8.82745 35.4946 5.57682C32.5565 2.32619 28.5716 0.5 24.4166 0.5ZM20.4999 30.8333H16.5833C15.0402 30.8333 13.5123 30.4971 12.0867 29.8438C10.6611 29.1905 9.36583 28.2329 8.27475 27.0257C7.18366 25.8186 6.31816 24.3855 5.72766 22.8082C5.13717 21.231 4.83325 19.5405 4.83325 17.8333C4.83325 16.1261 5.13717 14.4357 5.72766 12.8584C6.31816 11.2812 7.18366 9.84811 8.27475 8.64095C9.36583 7.43378 10.6611 6.47621 12.0867 5.8229C13.5123 5.16959 15.0402 4.83333 16.5833 4.83333H24.4166C27.5329 4.83333 30.5215 6.20297 32.7251 8.64095C34.9286 11.0789 36.1666 14.3855 36.1666 17.8333C36.1666 25.655 31.3452 30.7597 20.4999 36.2067V30.8333Z"/></svg>