<svg xmlns="http://www.w3.org/2000/svg" width="25" height="25" fill="none" viewBox="0 0 25 25"><path fill="#000" d="M0 2.77778V22.2222C0 23.75 1.25 25 2.77778 25H22.2222C23.75 25 25 23.75 25 22.2222V2.77778C25 1.25 23.75 0 22.2222 0H2.77778C1.25 0 0 1.25 0 2.77778ZM16.6667 8.33333C16.6667 10.6944 14.8611 12.5 12.5 12.5C10.1389 12.5 8.33333 10.6944 8.33333 8.33333C8.33333 5.97222 10.1389 4.16667 12.5 4.16667C14.8611 4.16667 16.6667 5.97222 16.6667 8.33333ZM4.16667 19.4444C4.16667 16.6667 9.72222 15.1389 12.5 15.1389C15.2778 15.1389 20.8333 16.6667 20.8333 19.4444V20.8333H4.16667V19.4444Z"/></svg>