<svg xmlns="http://www.w3.org/2000/svg" width="43" height="43" fill="none" viewBox="0 0 43 43"><path fill="#fff" d="M21.5 42.75C9.76363 42.75 0.25 33.2364 0.25 21.5C0.25 9.76363 9.76363 0.25 21.5 0.25C33.2364 0.25 42.75 9.76363 42.75 21.5C42.75 33.2364 33.2364 42.75 21.5 42.75ZM10.9026 34.794C13.9107 37.1989 17.6488 38.5061 21.5 38.5C25.6863 38.5 29.5176 36.987 32.4799 34.4795C31.0959 33.0595 29.4412 31.9314 27.6137 31.162C25.7862 30.3925 23.8229 29.9974 21.84 30C19.7842 29.9976 17.7504 30.4226 15.8676 31.2478C13.9848 32.0731 12.294 33.2807 10.9026 34.794ZM7.934 31.7425C9.71996 29.8471 11.8752 28.3376 14.2668 27.307C16.6584 26.2764 19.2358 25.7465 21.84 25.75C24.351 25.7467 26.8379 26.2395 29.158 27.2001C31.478 28.1606 33.5854 29.57 35.3592 31.3473C37.1784 28.7869 38.2527 25.7726 38.463 22.6388C38.6732 19.505 38.0112 16.3743 36.5503 13.5938C35.0894 10.8134 32.8869 8.49207 30.1869 6.88732C27.487 5.28257 24.3953 4.45716 21.2548 4.50266C18.1143 4.54816 15.0478 5.4628 12.3955 7.14511C9.74318 8.82741 7.60879 11.2116 6.22909 14.0332C4.8494 16.8547 4.27835 20.0034 4.5793 23.1298C4.88024 26.2561 6.04142 29.238 7.934 31.7446V31.7425ZM21.5 23.625C19.2457 23.625 17.0837 22.7295 15.4896 21.1354C13.8955 19.5413 13 17.3793 13 15.125C13 12.8707 13.8955 10.7087 15.4896 9.11459C17.0837 7.52053 19.2457 6.625 21.5 6.625C23.7543 6.625 25.9163 7.52053 27.5104 9.11459C29.1045 10.7087 30 12.8707 30 15.125C30 17.3793 29.1045 19.5413 27.5104 21.1354C25.9163 22.7295 23.7543 23.625 21.5 23.625ZM21.5 19.375C22.6272 19.375 23.7082 18.9272 24.5052 18.1302C25.3022 17.3332 25.75 16.2522 25.75 15.125C25.75 13.9978 25.3022 12.9168 24.5052 12.1198C23.7082 11.3228 22.6272 10.875 21.5 10.875C20.3728 10.875 19.2918 11.3228 18.4948 12.1198C17.6978 12.9168 17.25 13.9978 17.25 15.125C17.25 16.2522 17.6978 17.3332 18.4948 18.1302C19.2918 18.9272 20.3728 19.375 21.5 19.375Z"/></svg>