<svg width="30" height="27" viewBox="0 0 30 27" fill="none" xmlns="http://www.w3.org/2000/svg">
<path d="M0.776966 7.53308L28.4682 0.0890968C28.5858 0.0575288 28.7104 0.055771 28.829 0.0840073C28.9476 0.112242 29.0559 0.169435 29.1425 0.249619C29.2291 0.329803 29.2908 0.43004 29.3213 0.539866C29.3518 0.64969 29.3499 0.765079 29.3158 0.873994L21.2763 26.514C21.2432 26.6197 21.1809 26.7156 21.0955 26.7923C21.0101 26.8689 20.9047 26.9236 20.7895 26.951C20.6744 26.9784 20.5535 26.9776 20.4388 26.9485C20.3241 26.9195 20.2195 26.8633 20.1354 26.7855L12.0419 16.0834L0.483758 8.58946C0.399695 8.5116 0.338996 8.4148 0.307643 8.3086C0.276291 8.2024 0.275367 8.09047 0.304963 7.98384C0.334559 7.87721 0.393654 7.77956 0.476422 7.70052C0.55919 7.62147 0.662774 7.56376 0.776966 7.53308ZM14.3453 15.7427L19.6158 22.7203L25.6474 3.48584L4.87413 9.07062L12.7209 13.6628L16.1157 10.5195L18.0511 12.3115L14.3453 15.7427Z" fill="white"/>
</svg>
