<svg width="20" height="20" viewBox="0 0 20 20" fill="none" xmlns="http://www.w3.org/2000/svg">
<path d="M10 20C4.477 20 0 15.523 0 10C0 4.477 4.477 0 10 0C15.523 0 20 4.477 20 10C20 15.523 15.523 20 10 20Z" fill="url(#paint0_linear)"/>
<path d="M10 20C4.477 20 0 15.523 0 10C0 4.477 4.477 0 10 0C15.523 0 20 4.477 20 10C20 15.523 15.523 20 10 20ZM10 18C12.1217 18 14.1566 17.1571 15.6569 15.6569C17.1571 14.1566 18 12.1217 18 10C18 7.87827 17.1571 5.84344 15.6569 4.34315C14.1566 2.84285 12.1217 2 10 2C7.87827 2 5.84344 2.84285 4.34315 4.34315C2.84285 5.84344 2 7.87827 2 10C2 12.1217 2.84285 14.1566 4.34315 15.6569C5.84344 17.1571 7.87827 18 10 18Z" fill="url(#paint1_linear)"/>
<path d="M5.2 13.7778H14.8V9.5H16V14.3889C16 14.551 15.9368 14.7064 15.8243 14.821C15.7117 14.9356 15.5591 15 15.4 15H4.6C4.44087 15 4.28826 14.9356 4.17574 14.821C4.06321 14.7064 4 14.551 4 14.3889V9.5H5.2V13.7778ZM10.6 7.66667V11.9444H9.4V7.66667H6.4L10 4L13.6 7.66667H10.6Z" fill="white"/>
<defs>
<linearGradient id="paint0_linear" x1="20" y1="10.1333" x2="-1.98424e-07" y2="10.1333" gradientUnits="userSpaceOnUse">
<stop stop-color="#824487"/>
<stop offset="1" stop-color="#544D85"/>
</linearGradient>
<linearGradient id="paint1_linear" x1="20" y1="10.1333" x2="-1.98424e-07" y2="10.1333" gradientUnits="userSpaceOnUse">
<stop stop-color="#824487"/>
<stop offset="1" stop-color="#544D85"/>
</linearGradient>
</defs>
</svg>
